<svg xmlns="http://www.w3.org/2000/svg" viewBox="0 0 1200 760" role="img" aria-labelledby="title desc"><title id="title">Raven Sharp Image Optimiser preview</title><desc id="desc">A before and after image optimisation comparison with output settings.</desc><defs><linearGradient id="bg" x2="1" y2="1"><stop stop-color="#171732"/><stop offset="1" stop-color="#080810"/></linearGradient><linearGradient id="sky" x2="1" y2="1"><stop stop-color="#7c5cbf"/><stop offset="1" stop-color="#38bdf8"/></linearGradient></defs><rect width="1200" height="760" rx="34" fill="url(#bg)"/><rect x="28" y="28" width="1144" height="704" rx="26" fill="#0e0e1f" stroke="#393966"/><text x="66" y="78" fill="#f4f4ff" font-family="Arial" font-size="22" font-weight="700">IMAGE OPTIMISER</text><rect x="965" y="48" width="164" height="34" rx="17" fill="#163c35"/><text x="1000" y="70" fill="#4ade80" font-family="Arial" font-size="14">PREVIEW READY</text><rect x="62" y="118" width="770" height="538" rx="20" fill="#111124" stroke="#2d2d52"/><clipPath id="clip"><rect x="88" y="146" width="718" height="420" rx="14"/></clipPath><g clip-path="url(#clip)"><rect x="88" y="146" width="718" height="420" fill="url(#sky)"/><circle cx="644" cy="242" r="62" fill="#ffc857" opacity=".9"/><path d="M88 500l166-190 124 136 92-112 184 166 152-102v168H88z" fill="#16162d"/><path d="M88 535l190-155 124 116 103-87 170 126 131-80v111H88z" fill="#24244a"/></g><path d="M447 146v420" stroke="#f4f4ff" stroke-width="3"/><circle cx="447" cy="356" r="19" fill="#f4f4ff"/><path d="M442 348l-8 8 8 8m10-16 8 8-8 8" fill="none" stroke="#171732" stroke-width="3"/><rect x="104" y="164" width="96" height="30" rx="15" fill="#080810" opacity=".75"/><text x="124" y="184" fill="#c4c8ea" font-family="Arial" font-size="12">BEFORE 1×</text><rect x="691" y="164" width="96" height="30" rx="15" fill="#080810" opacity=".75"/><text x="714" y="184" fill="#4ade80" font-family="Arial" font-size="12">AFTER 4×</text><text x="88" y="607" fill="#9ba3d9" font-family="Arial" font-size="14">1200 × 800 · JPEG · 72 DPI</text><text x="575" y="607" fill="#4ade80" font-family="Arial" font-size="14">4800 × 3200 · PNG · 300 DPI</text><rect x="866" y="118" width="270" height="538" rx="20" fill="#15152a" stroke="#2d2d52"/><text x="892" y="158" fill="#a78bfa" font-family="Arial" font-size="13" letter-spacing="2">OUTPUT SETTINGS</text><g font-family="Arial"><text x="892" y="203" fill="#9ba3d9" font-size="13">UPSCALE</text><rect x="892" y="218" width="218" height="44" rx="10" fill="#222240"/><text x="910" y="246" fill="#f4f4ff" font-size="15">Real-ESRGAN · 4×</text><text x="892" y="301" fill="#9ba3d9" font-size="13">PRINT PROFILE</text><rect x="892" y="316" width="218" height="44" rx="10" fill="#222240"/><text x="910" y="344" fill="#f4f4ff" font-size="15">Printify · 300 DPI</text><text x="892" y="399" fill="#9ba3d9" font-size="13">ENHANCEMENTS</text><text x="892" y="431" fill="#f4f4ff" font-size="14">✓ Sharpen detail</text><text x="892" y="461" fill="#f4f4ff" font-size="14">✓ Preserve transparency</text><text x="892" y="491" fill="#f4f4ff" font-size="14">✓ Embed DPI metadata</text><rect x="892" y="546" width="218" height="60" rx="14" fill="url(#sky)"/><text x="944" y="583" fill="white" font-size="16" font-weight="700">EXPORT PNG</text></g></svg>
